<?xml version="1.0" standalone="no"?>
<!DOCTYPE svg PUBLIC "-//W3C//DTD SVG 20010904//EN"
 "http://www.w3.org/TR/2001/REC-SVG-20010904/DTD/svg10.dtd">
<svg version="1.0" xmlns="http://www.w3.org/2000/svg"
 width="1314.000000pt" height="1314.000000pt" viewBox="0 0 1314.000000 1314.000000"
 preserveAspectRatio="xMidYMid meet">
<metadata>
Created by potrace 1.14, written by Peter Selinger 2001-2017
</metadata>
<g transform="translate(0.000000,1314.000000) scale(0.100000,-0.100000)"
fill="#000000" stroke="none">
<path d="M760 11444 c0 -1425 1 -1504 18 -1505 9 0 188 -1 397 -2 l380 -2 2
-3336 1 -3336 -396 0 -397 1 -3 -1507 -2 -1507 2097 2 2098 3 2 3060 c0 1683
2 3062 2 3064 1 5 -68 143 1937 -3888 269 -541 631 -1267 804 -1614 l315 -631
2129 2 c1172 2 2132 5 2135 8 11 10 7 2995 -3 3002 -5 3 -184 5 -398 5 -387 0
-388 0 -389 21 -1 28 -1 6581 0 6622 l1 32 398 -1 397 0 1 1494 c0 822 -2
1500 -4 1507 -3 9 -434 12 -2108 12 l-2105 0 6 -1967 c10 -3373 12 -4203 8
-4203 -2 0 -166 327 -365 728 -198 400 -510 1029 -693 1397 -183 369 -474 956
-647 1305 -174 349 -526 1058 -783 1575 -257 517 -492 990 -522 1052 l-55 112
-2129 0 -2129 -1 0 -1504z"/>
</g>
</svg>
