<?xml version="1.0" standalone="no"?>
<!DOCTYPE svg PUBLIC "-//W3C//DTD SVG 20010904//EN"
 "http://www.w3.org/TR/2001/REC-SVG-20010904/DTD/svg10.dtd">
<svg version="1.0" xmlns="http://www.w3.org/2000/svg"
 width="500.000000pt" height="500.000000pt" viewBox="0 0 500.000000 500.000000"
 preserveAspectRatio="xMidYMid meet">
<metadata>
Created by potrace 1.14, written by Peter Selinger 2001-2017
</metadata>
<g transform="translate(0.000000,500.000000) scale(0.100000,-0.100000)"
fill="#000000" stroke="none">
<path d="M1822 4888 c-89 -152 -146 -284 -211 -490 -25 -80 -60 -162 -96 -224
-30 -55 -69 -134 -86 -178 -26 -67 -94 -289 -103 -336 -14 -77 -32 -109 -96
-177 -87 -91 -175 -201 -246 -308 -32 -48 -148 -272 -191 -370 -26 -60 -31
-87 -37 -187 -3 -64 -8 -123 -11 -130 -2 -7 -6 -33 -9 -57 -3 -24 -19 -112
-35 -195 -17 -83 -33 -167 -36 -186 -3 -19 -8 -46 -10 -60 -4 -22 -8 -56 -19
-155 -6 -48 -18 -196 -20 -240 -3 -48 21 -110 114 -302 130 -267 288 -474 551
-718 120 -112 154 -141 294 -254 77 -62 149 -120 160 -130 11 -9 36 -27 55
-41 19 -13 37 -27 40 -30 15 -18 130 -100 131 -93 0 4 2 23 4 42 10 98 25 171
35 171 4 0 30 -19 56 -43 72 -62 155 -130 189 -154 l31 -21 289 98 c160 54
301 102 315 108 14 6 84 57 156 114 72 57 161 124 197 148 59 40 70 53 106
125 78 157 176 443 196 570 9 57 7 149 -5 180 -8 21 -5 36 19 83 32 63 30 77
-16 166 l-20 40 104 58 c117 65 220 138 308 220 72 66 93 78 138 78 33 0 39 5
89 83 120 182 147 246 149 357 2 56 6 70 37 115 47 66 90 170 97 233 5 47 3
52 -28 78 -48 41 -141 81 -252 108 -55 14 -131 38 -170 54 -134 57 -205 92
-205 103 0 6 7 34 15 62 29 105 25 135 -39 236 -34 53 -72 170 -77 236 -2 22
-40 62 -94 100 -82 58 -97 73 -90 95 13 42 13 288 -1 379 -20 135 -64 311 -77
312 -101 9 -202 -60 -320 -221 -51 -69 -202 -194 -225 -185 -92 35 -217 59
-312 59 l-104 1 -7 30 c-23 103 -164 397 -244 510 -91 127 -212 215 -297 215
-36 0 -39 -3 -86 -82z"/>
</g>
</svg>
